# xmcd
#
# Track frame offsets: 
#        150
#        15412
#        31076
#        48416
#        61458
#        74094
#        88348
#        103472
#        116857
#        126715
#        138850
#        153798
#        171359
#        190032
#        205902
#        218924
#        233903
#        255473
#        276746
#        294436
#        297547
#
# Disc length: 4127 seconds
#
# Revision: 0
# Processed by: cddbd v1.5.2PL0 Copyright (c) Steve Scherf et al.
# Submitted via: ExactAudioCopyFreeDBPlugin 1.0
#
DISCID=54101d15
DTITLE=Virgis Stakenas - Festivalio Akaciju aleja kolekcija
DYEAR=2013
DGENRE=Country
TTITLE0=Labas
TTITLE1=Gegutele
TTITLE2=Rytiniame autobuse
TTITLE3=Pro sali
TTITLE4=Jovita
TTITLE5=Eldorado
TTITLE6=Keliaujantis muzikantas
TTITLE7=Argi negaila
TTITLE8=As pajuokavau
TTITLE9=Asarele
TTITLE10=Traku pilis
TTITLE11=Ateis rudenelis
TTITLE12=Pelenu spalvos akiu moteris
TTITLE13=Daina apie vaikus
TTITLE14=Traukinio bliuzas
TTITLE15=Durniu laivas
TTITLE16=Kolorado
TTITLE17=Traukinys i slove
TTITLE18=Seni draugai
TTITLE19=Muzikanto sirdis
TTITLE20=Akaciju aleja
EXTD=
EXTT0=
EXTT1=
EXTT2=
EXTT3=
EXTT4=
EXTT5=
EXTT6=
EXTT7=
EXTT8=
EXTT9=
EXTT10=
EXTT11=
EXTT12=
EXTT13=
EXTT14=
EXTT15=
EXTT16=
EXTT17=
EXTT18=
EXTT19=
EXTT20=
PLAYORDER=
